<?xml version="1.0" standalone="no"?>
<!DOCTYPE svg PUBLIC "-//W3C//DTD SVG 20010904//EN"
 "http://www.w3.org/TR/2001/REC-SVG-20010904/DTD/svg10.dtd">
<svg version="1.0" xmlns="http://www.w3.org/2000/svg"
 width="297.000000pt" height="306.000000pt" viewBox="0 0 297.000000 306.000000"
 preserveAspectRatio="xMidYMid meet">

<g transform="translate(0.000000,306.000000) scale(0.100000,-0.100000)"
fill="#000000" stroke="none">
<path d="M1174 2874 c-76 -23 -143 -79 -178 -147 -26 -50 -30 -69 -29 -135 0
-56 6 -90 22 -125 27 -62 27 -82 -1 -101 -19 -14 -72 -16 -373 -16 -260 0
-354 -3 -363 -12 -9 -9 -12 -246 -12 -1004 0 -910 1 -993 17 -1005 13 -11 88
-15 371 -17 429 -3 402 -11 400 112 -2 71 1 90 23 132 76 148 279 174 396 52
49 -51 64 -97 62 -189 -2 -52 1 -83 10 -92 9 -9 103 -13 377 -15 l364 -3 25
25 25 25 0 384 c0 335 2 386 15 391 9 3 39 -4 67 -15 116 -45 242 -17 322 72
137 152 85 396 -101 476 -55 24 -155 21 -222 -6 -30 -12 -60 -20 -68 -17 -10
4 -13 68 -13 333 0 281 -2 332 -16 351 l-15 22 -355 0 c-226 0 -362 4 -375 10
-25 14 -24 46 3 106 33 74 31 183 -6 258 -30 61 -87 114 -151 141 -57 24 -159
28 -221 9z m171 -65 c50 -13 129 -75 121 -95 -3 -8 0 -13 6 -11 18 3 40 -83
34 -139 -2 -28 -14 -70 -25 -92 -28 -56 -27 -103 4 -140 13 -16 22 -32 19 -35
-3 -3 1 -5 8 -4 7 0 174 -1 371 -1 l357 -2 0 -26 0 -26 -107 9 c-60 4 -202 8
-318 8 -188 0 -224 -3 -345 -27 -142 -28 -146 -29 -385 -49 -119 -10 -177 -10
-285 0 -172 16 -337 15 -420 -3 l-65 -15 115 5 c63 3 140 7 170 9 30 2 118 -3
195 -12 80 -8 172 -12 215 -9 167 13 361 37 470 57 63 12 153 24 200 28 78 5
412 -4 470 -13 14 -2 39 -5 57 -5 l32 -1 0 -71 0 -70 -97 6 c-53 4 -124 10
-157 15 -113 14 -355 11 -450 -5 -49 -9 -103 -18 -118 -21 -16 -2 -85 -15
-155 -30 -125 -25 -132 -25 -402 -18 -288 7 -320 4 -464 -38 -38 -11 -74 -22
-81 -24 -9 -4 -12 33 -11 158 l1 163 350 5 c377 5 382 6 410 60 19 36 19 57 1
108 l-14 40 106 2 c59 2 125 4 147 5 22 1 73 3 113 5 47 2 72 7 72 15 0 9 -13
10 -47 5 -27 -4 -127 -11 -224 -14 l-176 -7 -7 23 c-20 76 4 158 64 219 64 64
145 83 245 58z m716 -734 c75 -9 140 -15 145 -14 28 5 34 -4 34 -47 l0 -45
-492 6 c-271 3 -490 4 -486 0 10 -10 266 -18 635 -19 l343 -1 0 -161 c0 -147
2 -164 20 -187 30 -38 77 -44 136 -17 66 29 140 36 184 18 50 -21 98 -64 120
-109 39 -75 20 -205 -38 -265 -60 -63 -148 -86 -222 -59 -98 35 -108 37 -144
20 -39 -19 -55 -51 -58 -112 l-1 -43 -146 5 c-80 3 -142 3 -140 0 7 -6 86 -14
199 -19 l85 -4 2 -256 2 -256 -27 -1 -27 -2 28 -4 c26 -4 27 -7 27 -64 l0 -59
-330 0 -330 0 0 68 c0 162 -121 289 -286 300 -102 6 -168 -15 -237 -78 -30
-27 -58 -46 -62 -42 -5 4 -5 2 -2 -5 4 -6 -2 -32 -13 -58 -14 -32 -20 -69 -20
-116 l0 -69 -330 0 -329 0 1 100 c1 111 -4 103 82 115 40 5 177 46 246 72 8 3
20 7 25 7 6 1 19 6 30 13 18 11 18 14 5 27 -19 19 -154 46 -235 47 -33 0 -80
4 -105 7 l-45 7 0 54 0 53 142 -1 c159 -2 333 -15 408 -30 28 -6 64 -12 80
-15 17 -2 50 -12 75 -21 52 -19 136 -36 123 -26 -10 9 -133 45 -263 76 -79 20
-132 24 -320 29 -124 3 -231 5 -238 6 -10 0 -13 18 -11 75 l3 75 144 0 c79 0
141 3 139 8 -3 4 -66 7 -141 7 -104 0 -137 3 -141 13 -3 8 -5 45 -5 83 l0 69
126 0 c69 0 134 -5 145 -10 15 -8 19 -7 19 5 0 16 -10 17 -200 19 l-85 1 -3
72 c-3 71 -2 72 24 79 15 4 109 5 208 2 124 -4 164 -3 127 3 -30 5 -123 10
-205 12 l-151 2 -3 59 c-2 32 1 63 6 68 4 4 39 2 80 -5 52 -10 72 -11 75 -2 3
6 -5 12 -17 12 -11 1 -49 5 -82 9 l-62 7 2 185 1 185 60 21 c33 12 65 24 70
28 6 3 48 14 94 23 74 15 113 16 300 9 119 -5 248 -8 286 -6 66 2 208 26 227
39 9 5 88 18 263 43 80 12 288 5 456 -15z m-1501 -1342 c8 -4 20 -8 25 -9 43
-7 75 -18 75 -24 0 -9 -200 -74 -278 -91 -76 -16 -81 -12 -81 68 1 37 2 70 4
73 5 7 236 -8 255 -17z"/>
<path d="M1096 2728 c3 -5 10 -6 15 -3 13 9 11 12 -6 12 -8 0 -12 -4 -9 -9z"/>
<path d="M1410 2620 c-10 -6 2 -8 38 -7 28 1 52 5 52 10 0 10 -72 9 -90 -3z"/>
<path d="M575 2240 c-34 -35 -19 -41 16 -6 13 12 31 26 39 29 11 4 9 6 -6 6
-11 1 -33 -12 -49 -29z"/>
<path d="M1750 1846 l0 -75 -35 15 c-40 16 -103 6 -125 -21 -7 -8 -17 -12 -24
-8 -6 3 -8 3 -4 -2 4 -4 1 -20 -8 -36 -17 -34 -22 -90 -11 -142 6 -30 5 -37
-4 -31 -8 4 -10 3 -5 -5 4 -6 11 -9 15 -6 5 2 19 -7 31 -20 34 -36 91 -51 129
-35 17 7 31 18 31 24 0 6 5 3 11 -6 6 -12 22 -18 44 -18 l35 0 0 220 0 220
-40 0 -40 0 0 -74z m-12 -143 c6 -9 12 -41 12 -70 0 -86 -53 -120 -105 -68
-56 55 -15 177 53 160 15 -3 33 -13 40 -22z"/>
<path d="M1727 1629 c4 -13 8 -18 11 -10 2 7 -1 18 -6 23 -8 8 -9 4 -5 -13z"/>
<path d="M1695 1570 c-3 -6 1 -7 9 -4 18 7 21 14 7 14 -6 0 -13 -4 -16 -10z"/>
<path d="M454 1688 l41 -203 47 -3 46 -3 26 111 c14 61 26 118 26 128 1 37 18
-15 40 -125 l23 -113 48 0 48 0 11 58 c7 31 25 120 41 196 16 77 29 143 29
148 0 4 -17 8 -39 8 l-38 0 -17 -87 c-9 -49 -22 -113 -28 -143 l-11 -55 -12
55 c-7 30 -20 95 -30 143 l-18 88 -41 -3 -40 -3 -27 -134 c-15 -73 -30 -135
-32 -137 -2 -2 -14 59 -27 136 l-24 140 -42 0 -41 0 41 -202z"/>
<path d="M520 1880 c-12 -8 -13 -11 -2 -22 11 -11 13 -10 10 2 -2 11 5 15 31
13 37 -2 37 5 0 12 -13 2 -31 0 -39 -5z"/>
<path d="M700 1881 c0 -6 4 -12 8 -15 5 -3 9 1 9 9 0 8 -4 15 -9 15 -4 0 -8
-4 -8 -9z"/>
<path d="M908 1881 c-13 -4 -15 -10 -8 -21 5 -8 10 -10 10 -5 0 16 50 17 105
1 27 -9 59 -15 70 -15 25 1 569 1 610 0 28 0 29 0 7 9 -13 6 -148 9 -310 8
-180 0 -309 3 -347 10 -85 17 -118 20 -137 13z"/>
<path d="M1888 1803 c7 -3 16 -2 19 1 4 3 -2 6 -13 5 -11 0 -14 -3 -6 -6z"/>
<path d="M971 1785 c-18 -8 -36 -13 -41 -10 -4 2 -16 -5 -26 -17 -11 -12 -13
-18 -6 -14 16 9 15 5 -3 -30 -20 -39 -19 -127 2 -167 9 -18 16 -35 15 -39 -1
-5 1 -7 6 -6 4 0 25 -7 46 -16 72 -32 156 -3 191 64 18 34 20 132 4 162 -15
28 13 53 43 37 10 -5 23 -7 29 -3 6 3 4 -7 -4 -23 -25 -48 -30 -95 -13 -143
15 -45 13 -66 -6 -54 -7 5 -8 2 -3 -5 5 -9 10 -10 18 -2 7 7 19 3 39 -14 112
-94 279 25 238 169 -7 23 -12 49 -13 58 -1 9 -4 15 -8 12 -10 -6 -30 22 -21
31 4 5 1 5 -5 1 -7 -4 -23 -1 -35 6 -24 13 -139 18 -132 6 5 -8 -32 -31 -56
-34 -8 -2 -18 2 -22 9 -6 9 -15 8 -37 -5 -29 -16 -42 -12 -53 16 -1 5 -12 11
-23 12 -11 1 -36 5 -55 8 -22 4 -47 1 -69 -9z m90 -74 c20 -16 24 -28 24 -76
0 -48 -4 -60 -24 -76 -31 -25 -47 -24 -78 7 -22 22 -25 32 -20 77 3 37 11 56
27 69 28 23 42 23 71 -1z m334 -6 c19 -18 25 -35 25 -70 0 -35 -6 -52 -25 -70
-13 -14 -31 -25 -40 -25 -9 0 -27 11 -40 25 -42 41 -31 135 18 155 32 13 36
12 62 -15z"/>
<path d="M1026 1585 c-11 -8 -16 -15 -10 -16 5 0 17 -2 26 -4 9 -2 19 3 22 10
3 10 0 12 -11 8 -11 -4 -14 -2 -9 5 9 15 5 15 -18 -3z"/>
<path d="M1401 1624 c0 -11 3 -14 6 -6 3 7 2 16 -1 19 -3 4 -6 -2 -5 -13z"/>
<path d="M1316 1568 c3 -5 10 -6 15 -3 13 9 11 12 -6 12 -8 0 -12 -4 -9 -9z"/>
<path d="M2150 1783 c0 -8 12 -13 29 -13 43 0 47 17 6 22 -24 3 -35 0 -35 -9z"/>
<path d="M1860 1779 c0 -5 11 -39 25 -76 14 -37 23 -74 20 -82 -3 -9 -3 -12 2
-8 4 5 18 -22 30 -59 20 -59 21 -69 8 -94 -8 -15 -21 -30 -30 -33 -9 -4 -15
-19 -15 -38 0 -30 1 -31 33 -25 60 11 89 57 151 242 31 93 56 172 56 177 0 4
-18 7 -39 7 l-40 0 -25 -84 c-14 -46 -26 -90 -26 -97 0 -25 -14 3 -37 74 -12
39 -23 77 -23 83 0 6 19 9 50 7 28 -2 50 0 50 6 0 5 -41 9 -95 9 -52 0 -95 -4
-95 -9z"/>
<path d="M343 1763 c-42 -8 -24 -18 32 -18 37 0 55 4 55 13 0 12 -39 14 -87 5z"/>
<path d="M1967 1739 c4 -13 8 -18 11 -10 2 7 -1 18 -6 23 -8 8 -9 4 -5 -13z"/>
<path d="M2026 1745 c-9 -26 -7 -32 5 -12 6 10 9 21 6 23 -2 3 -7 -2 -11 -11z"/>
<path d="M751 1724 c0 -11 3 -14 6 -6 3 7 2 16 -1 19 -3 4 -6 -2 -5 -13z"/>
<path d="M1175 1729 c-4 -6 -5 -12 -2 -15 2 -3 7 2 10 11 7 17 1 20 -8 4z"/>
<path d="M1515 1680 c3 -5 8 -10 11 -10 2 0 4 5 4 10 0 6 -5 10 -11 10 -5 0
-7 -4 -4 -10z"/>
<path d="M1152 1527 c-17 -18 -19 -24 -7 -24 8 0 13 3 10 5 -3 3 2 14 12 24
24 27 10 22 -15 -5z"/>
<path d="M2610 1540 c-25 -5 -148 -13 -275 -20 -291 -14 -275 -13 -275 -24 0
-13 337 4 505 25 44 6 85 11 92 12 7 0 10 4 7 9 -3 4 -6 7 -7 7 -1 -1 -22 -5
-47 -9z"/>
<path d="M1479 1513 c-13 -16 -12 -17 4 -4 9 7 17 15 17 17 0 8 -8 3 -21 -13z"/>
<path d="M1893 1513 c-18 -2 -33 -9 -33 -15 0 -6 10 -8 23 -4 12 3 30 6 40 6
9 0 17 5 17 10 0 6 -3 9 -7 8 -5 0 -23 -3 -40 -5z"/>
<path d="M558 1463 c6 -2 18 -2 25 0 6 3 1 5 -13 5 -14 0 -19 -2 -12 -5z"/>
<path d="M1919 1453 c-13 -16 -12 -17 4 -4 16 13 21 21 13 21 -2 0 -10 -8 -17
-17z"/>
<path d="M2046 1438 c3 -5 10 -6 15 -3 13 9 11 12 -6 12 -8 0 -12 -4 -9 -9z"/>
<path d="M740 1388 c-19 -5 -40 -14 -47 -20 -7 -5 -16 -7 -21 -5 -4 3 -14 1
-22 -5 -12 -8 -11 -9 3 -4 16 5 16 3 -3 -25 -12 -16 -25 -28 -28 -25 -2 3 1
14 9 23 11 15 11 16 -1 5 -17 -14 -22 -55 -24 -168 -1 -72 2 -85 27 -123 47
-71 114 -100 203 -86 54 8 119 62 130 108 6 26 5 27 -33 27 -32 0 -43 -6 -61
-29 -28 -38 -71 -47 -116 -26 -43 21 -68 70 -68 139 -1 89 43 146 113 146 37
0 65 -20 51 -35 -4 -5 -1 -5 6 -1 9 5 15 1 19 -13 4 -17 13 -21 50 -21 44 0
45 1 39 28 -4 15 -8 35 -9 44 -1 9 -3 15 -6 13 -2 -3 -17 7 -33 20 -48 41
-111 52 -178 33z"/>
<path d="M1327 1394 c-1 -2 -78 -4 -170 -5 -93 -1 -170 -6 -173 -11 -4 -6 107
-9 294 -6 166 1 298 6 294 9 -7 7 -239 19 -245 13z"/>
<path d="M1630 1386 c-14 -8 -29 -12 -35 -9 -5 4 -7 3 -3 -2 4 -4 1 -20 -7
-36 -8 -15 -15 -37 -15 -48 0 -13 -8 -21 -22 -23 -18 -2 -23 -10 -23 -33 0
-24 5 -31 23 -33 23 -4 24 -4 20 -133 -2 -71 -1 -125 0 -119 2 5 24 10 48 10
l44 0 0 120 0 120 26 0 c14 0 23 -4 20 -9 -7 -11 20 -8 31 3 4 4 1 6 -7 4 -10
-2 -16 8 -20 32 -4 27 -10 36 -27 38 -17 3 -23 10 -23 28 0 21 5 24 35 24 32
0 35 2 35 30 0 46 -49 64 -100 36z"/>
<path d="M2679 1395 c-15 -14 -253 -37 -439 -42 -148 -4 -207 -9 -190 -15 33
-12 347 -1 475 17 55 8 118 16 140 19 22 3 41 5 43 6 1 0 2 5 2 10 0 10 -23
14 -31 5z"/>
<path d="M1797 1343 c-4 -3 -7 -21 -7 -39 0 -26 -4 -33 -22 -36 -18 -2 -23
-10 -23 -33 0 -23 5 -31 23 -33 21 -3 22 -8 24 -100 0 -53 1 -102 1 -109 0 -7
4 -11 11 -10 6 1 10 -5 8 -13 -2 -8 -1 -12 3 -8 3 3 22 2 41 -4 20 -5 49 -6
65 -3 24 5 29 12 29 36 0 23 -4 29 -22 29 -45 0 -53 15 -56 100 l-4 80 36 0
c34 0 36 1 36 35 0 33 -2 35 -35 35 -34 0 -35 1 -35 40 0 39 -1 40 -33 40 -19
0 -37 -3 -40 -7z"/>
<path d="M730 1275 c-13 -14 -22 -27 -19 -29 2 -2 14 10 27 25 29 36 24 38 -8
4z"/>
<path d="M1503 1285 c0 -8 4 -12 9 -9 5 3 6 10 3 15 -9 13 -12 11 -12 -6z"/>
<path d="M1398 1283 c7 -3 16 -2 19 1 4 3 -2 6 -13 5 -11 0 -14 -3 -6 -6z"/>
<path d="M1126 1269 c2 -4 -2 -12 -10 -18 -10 -9 -15 -8 -20 4 -3 9 -18 15
-41 15 l-35 0 0 -155 0 -155 40 0 40 0 0 98 c0 117 10 137 67 137 37 0 38 1
41 37 3 32 0 38 -20 42 -32 6 -67 3 -62 -5z"/>
<path d="M1305 1264 c-21 -7 -42 -11 -47 -8 -5 3 -8 2 -7 -3 3 -14 -13 -43
-21 -38 -4 2 -5 -7 -2 -20 4 -21 10 -25 41 -25 24 0 42 7 54 20 29 35 87 21
87 -21 0 -13 -14 -19 -57 -25 -32 -5 -66 -8 -75 -8 -9 0 -15 -3 -13 -6 2 -4
-7 -18 -20 -30 -14 -13 -25 -19 -25 -13 0 6 7 16 15 23 15 13 11 35 -6 25 -5
-4 -9 -2 -9 4 0 6 -10 15 -22 21 -20 10 -21 9 -6 -3 11 -9 16 -25 14 -50 -2
-20 1 -34 5 -31 5 3 9 -9 9 -26 0 -67 48 -103 129 -98 27 2 47 6 45 9 -2 4 3
12 11 19 12 10 15 9 15 -4 0 -12 9 -16 35 -16 l35 0 0 126 0 126 -30 28 c-17
16 -26 30 -20 32 5 1 -14 4 -44 4 -29 1 -70 -4 -91 -12z m-75 -149 c-7 -9 -15
-13 -19 -10 -3 3 1 10 9 15 21 14 24 12 10 -5z m176 -59 c-11 -46 -96 -52 -96
-7 0 24 13 33 60 41 38 6 45 1 36 -34z"/>
<path d="M1345 1069 c-4 -6 -5 -12 -2 -15 2 -3 7 2 10 11 7 17 1 20 -8 4z"/>
<path d="M1380 1070 c13 -9 13 -11 0 -21 -13 -9 -13 -10 0 -6 22 6 25 37 3 37
-15 0 -16 -2 -3 -10z"/>
<path d="M1954 1201 c4 -5 0 -12 -6 -15 -7 -3 -2 -3 12 0 38 9 48 24 16 24
-15 0 -25 -4 -22 -9z"/>
<path d="M2024 1202 c25 -11 233 -15 239 -5 3 5 -54 9 -127 10 -72 2 -123 -1
-112 -5z"/>
<path d="M1382 1174 c-7 -8 -8 -14 -3 -14 10 0 25 19 20 25 -2 1 -10 -3 -17
-11z"/>
<path d="M1552 1170 c0 -14 2 -19 5 -12 2 6 2 18 0 25 -3 6 -5 1 -5 -13z"/>
<path d="M1670 1181 c0 -6 4 -12 8 -15 5 -3 9 1 9 9 0 8 -4 15 -9 15 -4 0 -8
-4 -8 -9z"/>
<path d="M1908 1183 c7 -3 16 -2 19 1 4 3 -2 6 -13 5 -11 0 -14 -3 -6 -6z"/>
<path d="M701 1154 c0 -11 3 -14 6 -6 3 7 2 16 -1 19 -3 4 -6 -2 -5 -13z"/>
<path d="M1922 1157 c-8 -10 -6 -13 7 -13 11 0 17 6 14 13 -3 7 -6 13 -8 13
-1 0 -7 -6 -13 -13z"/>
<path d="M1958 1163 c7 -3 16 -2 19 1 4 3 -2 6 -13 5 -11 0 -14 -3 -6 -6z"/>
<path d="M1002 1130 c0 -14 2 -19 5 -12 2 6 2 18 0 25 -3 6 -5 1 -5 -13z"/>
<path d="M581 1124 c0 -11 3 -14 6 -6 3 7 2 16 -1 19 -3 4 -6 -2 -5 -13z"/>
<path d="M1553 1100 c0 -25 2 -35 4 -22 2 12 2 32 0 45 -2 12 -4 2 -4 -23z"/>
<path d="M898 1108 c5 -5 16 -8 23 -6 8 3 3 7 -10 11 -17 4 -21 3 -13 -5z"/>
<path d="M1001 1074 c0 -11 3 -14 6 -6 3 7 2 16 -1 19 -3 4 -6 -2 -5 -13z"/>
<path d="M1985 1080 c-19 -8 -19 -9 3 -9 12 -1 22 4 22 9 0 6 -1 10 -2 9 -2 0
-12 -4 -23 -9z"/>
<path d="M775 1070 c-3 -5 -2 -10 4 -10 5 0 13 5 16 10 3 6 2 10 -4 10 -5 0
-13 -4 -16 -10z"/>
<path d="M810 1071 c0 -5 7 -15 17 -22 15 -13 15 -12 4 9 -12 23 -21 28 -21
13z"/>
<path d="M1900 1050 c-9 -6 -10 -10 -3 -10 6 0 15 5 18 10 8 12 4 12 -15 0z"/>
<path d="M610 1006 c0 -2 8 -10 18 -17 15 -13 16 -12 3 4 -13 16 -21 21 -21
13z"/>
<path d="M919 973 c-13 -16 -12 -17 4 -4 9 7 17 15 17 17 0 8 -8 3 -21 -13z"/>
<path d="M1419 933 c-13 -16 -12 -17 4 -4 16 13 21 21 13 21 -2 0 -10 -8 -17
-17z"/>
<path d="M1608 943 c6 -2 18 -2 25 0 6 3 1 5 -13 5 -14 0 -19 -2 -12 -5z"/>
<path d="M778 933 c7 -3 16 -2 19 1 4 3 -2 6 -13 5 -11 0 -14 -3 -6 -6z"/>
<path d="M818 933 c7 -3 16 -2 19 1 4 3 -2 6 -13 5 -11 0 -14 -3 -6 -6z"/>
<path d="M1308 933 c6 -2 18 -2 25 0 6 3 1 5 -13 5 -14 0 -19 -2 -12 -5z"/>
<path d="M1726 849 c-49 -4 -101 -10 -115 -14 -49 -12 -346 -53 -353 -48 -5 2
-8 -1 -8 -8 0 -16 135 -4 251 21 121 27 280 40 516 43 112 1 203 5 203 10 0 9
-377 7 -494 -4z"/>
<path d="M1160 770 c8 -5 29 -9 45 -9 29 1 29 1 5 9 -14 4 -34 8 -45 9 -16 1
-17 -1 -5 -9z"/>
<path d="M1920 639 c-160 -16 -315 -26 -322 -22 -5 2 -8 -2 -8 -9 0 -9 -3 -9
-10 2 -7 11 -10 11 -10 2 0 -7 -4 -10 -10 -7 -5 3 -10 1 -10 -4 0 -7 13 -9 33
-6 85 13 396 35 510 36 70 1 127 6 127 10 0 11 -183 9 -300 -2z"/>
<path d="M890 600 c-91 -22 -140 -38 -121 -39 7 -1 30 3 50 8 20 5 62 15 94
22 31 7 57 16 57 21 0 4 -1 8 -2 7 -2 0 -37 -9 -78 -19z"/>
<path d="M655 544 c-27 -7 -79 -18 -115 -24 -36 -5 -101 -19 -145 -30 -78 -19
-79 -20 -25 -16 61 5 321 58 360 74 l25 11 -25 -1 c-14 0 -47 -6 -75 -14z"/>
<path d="M1985 503 c-151 -4 -366 -23 -384 -33 -23 -13 10 -12 154 5 66 8 179
15 250 16 72 0 141 5 155 9 27 9 26 9 -175 3z"/>
</g>
</svg>
