<?xml version="1.0" standalone="no"?>
<!DOCTYPE svg PUBLIC "-//W3C//DTD SVG 20010904//EN"
 "http://www.w3.org/TR/2001/REC-SVG-20010904/DTD/svg10.dtd">
<svg version="1.0" xmlns="http://www.w3.org/2000/svg"
 width="51.000000pt" height="58.000000pt" viewBox="0 0 51.000000 58.000000"
 preserveAspectRatio="xMidYMid meet">

<g transform="translate(0.000000,58.000000) scale(0.100000,-0.100000)"
fill="#000000" stroke="none">
<path d="M110 441 c0 -5 5 -13 10 -16 6 -3 10 -2 10 4 0 5 -4 13 -10 16 -5 3
-10 2 -10 -4z"/>
<path d="M370 415 c-7 -9 -11 -17 -9 -20 3 -2 10 5 17 15 14 24 10 26 -8 5z"/>
<path d="M394 359 c-3 -6 -2 -15 3 -20 5 -5 9 -1 9 11 0 23 -2 24 -12 9z"/>
<path d="M136 341 c-4 -7 -5 -15 -2 -18 9 -9 19 4 14 18 -4 11 -6 11 -12 0z"/>
<path d="M170 336 c0 -2 7 -7 16 -10 8 -3 12 -2 9 4 -6 10 -25 14 -25 6z"/>
<path d="M256 331 c-4 -7 -5 -15 -2 -18 9 -9 19 4 14 18 -4 11 -6 11 -12 0z"/>
<path d="M412 295 c0 -16 2 -22 5 -12 2 9 2 23 0 30 -3 6 -5 -1 -5 -18z"/>
<path d="M110 266 c-12 -33 -13 -76 -1 -76 5 0 11 -9 14 -19 6 -26 70 -66 76
-49 2 7 10 -3 16 -22 l12 -35 7 32 c6 26 16 35 62 54 51 20 114 69 114 89 0 4
-17 -9 -38 -30 -38 -38 -92 -60 -147 -60 -29 1 -29 1 -10 15 17 14 15 15 -30
9 -39 -4 -46 -3 -32 6 22 14 22 31 1 23 -14 -5 -16 -1 -12 18 3 13 7 29 9 34
2 6 0 12 -6 15 -5 3 -11 -10 -13 -27 -2 -18 -7 -33 -13 -33 -12 0 -11 27 2 52
6 11 8 22 5 25 -3 3 -10 -6 -16 -21z"/>
</g>
</svg>
