<?xml version="1.0" standalone="no"?>
<!DOCTYPE svg PUBLIC "-//W3C//DTD SVG 20010904//EN"
 "http://www.w3.org/TR/2001/REC-SVG-20010904/DTD/svg10.dtd">
<svg version="1.0" xmlns="http://www.w3.org/2000/svg"
 width="54.000000pt" height="50.000000pt" viewBox="0 0 54.000000 50.000000"
 preserveAspectRatio="xMidYMid meet">

<g transform="translate(0.000000,50.000000) scale(0.100000,-0.100000)"
fill="#000000" stroke="none">
<path d="M270 396 c19 -7 52 -21 72 -30 21 -9 45 -16 55 -16 10 1 -16 14 -57
30 -41 17 -82 30 -90 30 -8 -1 1 -7 20 -14z"/>
<path d="M175 379 c-22 -10 -29 -16 -15 -13 28 7 80 33 65 33 -5 0 -28 -9 -50
-20z"/>
<path d="M158 333 c56 -2 148 -2 205 0 56 1 10 3 -103 3 -113 0 -159 -2 -102
-3z"/>
<path d="M89 288 c4 -27 6 -29 9 -10 2 12 8 20 13 17 5 -4 9 1 9 9 0 9 -8 16
-18 16 -15 0 -18 -6 -13 -32z"/>
<path d="M154 303 c3 -10 7 -51 8 -90 3 -65 5 -73 23 -73 18 0 20 7 20 90 l1
90 -29 0 c-22 0 -27 -4 -23 -17z"/>
<path d="M230 286 c0 -38 23 -100 33 -89 4 3 7 1 7 -5 0 -7 -4 -12 -10 -12 -5
0 -10 -6 -10 -14 0 -8 -6 -17 -12 -19 -7 -3 -1 -6 15 -6 l27 -1 0 74 c0 41 3
81 6 90 5 13 -1 16 -25 16 -29 0 -31 -3 -31 -34z"/>
<path d="M300 307 c0 -7 7 -23 16 -36 19 -27 26 -113 10 -123 -6 -5 -1 -8 12
-8 21 0 22 3 22 90 l0 90 -30 0 c-18 0 -30 -5 -30 -13z"/>
<path d="M388 313 c7 -3 12 -25 13 -56 l1 -52 9 49 c4 27 14 53 21 57 8 6 0 8
-22 8 -19 0 -29 -3 -22 -6z"/>
<path d="M400 150 c0 -5 5 -10 11 -10 5 0 7 5 4 10 -3 6 -8 10 -11 10 -2 0 -4
-4 -4 -10z"/>
<path d="M438 73 c12 -2 30 -2 40 0 9 3 -1 5 -23 4 -22 0 -30 -2 -17 -4z"/>
</g>
</svg>
