<?xml version="1.0" standalone="no"?>
<!DOCTYPE svg PUBLIC "-//W3C//DTD SVG 20010904//EN"
 "http://www.w3.org/TR/2001/REC-SVG-20010904/DTD/svg10.dtd">
<svg version="1.0" xmlns="http://www.w3.org/2000/svg"
 width="120.000000pt" height="220.000000pt" viewBox="0 0 120.000000 220.000000"
 preserveAspectRatio="xMidYMid meet">

<g transform="translate(0.000000,220.000000) scale(0.100000,-0.100000)"
fill="#000000" stroke="none">
<path d="M590 1877 c0 -14 5 -29 10 -32 7 -4 8 3 4 22 -9 38 -14 42 -14 10z"/>
<path d="M540 1810 c-13 -9 -13 -11 0 -19 8 -5 18 -7 22 -5 4 3 8 0 8 -5 0
-16 30 -13 36 4 4 9 16 13 35 11 43 -5 35 10 -8 18 -53 8 -76 7 -93 -4z"/>
<path d="M561 1722 c0 -11 2 -12 6 -4 2 6 9 10 13 7 5 -3 11 -2 14 3 2 4 -4 9
-15 9 -12 1 -19 -4 -18 -15z"/>
<path d="M589 1675 c-1 -3 -1 -14 -1 -25 0 -34 2 -40 13 -40 7 0 8 4 2 13 -5
6 -8 22 -7 35 1 19 -4 32 -7 17z"/>
<path d="M583 1583 c1 -26 12 -30 21 -7 3 8 2 13 -3 9 -5 -3 -11 1 -14 7 -3 7
-4 3 -4 -9z"/>
<path d="M583 1535 c-3 -9 -3 -18 -1 -21 3 -3 8 4 11 16 6 23 -1 27 -10 5z"/>
<path d="M550 1449 c0 -5 5 -7 10 -4 6 3 10 8 10 11 0 2 -4 4 -10 4 -5 0 -10
-5 -10 -11z"/>
<path d="M540 1401 c0 -5 5 -13 10 -16 6 -3 10 -2 10 4 0 5 -4 13 -10 16 -5 3
-10 2 -10 -4z"/>
<path d="M595 1399 c-4 -6 -5 -12 -2 -15 2 -3 7 2 10 11 7 17 1 20 -8 4z"/>
<path d="M569 1343 c0 -10 -2 -26 -4 -35 -2 -10 0 -18 4 -18 4 0 8 16 9 35 1
19 -1 35 -3 35 -3 0 -5 -8 -6 -17z"/>
<path d="M592 1299 c1 -31 2 -32 11 -11 7 16 7 26 -1 34 -8 8 -10 2 -10 -23z"/>
<path d="M527 1297 c-3 -8 -1 -20 3 -28 5 -7 5 -18 1 -24 -5 -5 -5 -19 0 -30
7 -18 8 -18 9 5 1 14 3 37 5 52 4 29 -9 47 -18 25z"/>
<path d="M558 1242 c-3 -10 -4 -47 -3 -81 1 -38 -1 -58 -6 -49 -6 9 -9 6 -9
-11 0 -19 2 -21 15 -11 10 8 14 30 13 74 -1 34 2 67 5 73 4 7 3 14 -2 17 -5 3
-11 -2 -13 -12z"/>
<path d="M587 1222 c-3 -15 -1 -28 4 -30 5 -2 4 -12 -2 -24 -6 -11 -8 -26 -5
-35 3 -8 1 -24 -5 -35 -8 -15 -8 -19 0 -14 6 4 11 3 11 -3 0 -5 -4 -13 -10
-16 -5 -3 -10 -12 -9 -18 0 -8 2 -8 6 1 4 9 8 10 18 2 22 -18 30 8 9 31 -9 10
-14 22 -10 26 4 4 11 1 16 -7 7 -11 10 -11 10 -2 0 7 -7 24 -16 37 -9 14 -12
25 -6 25 6 0 12 -6 15 -12 2 -7 4 3 3 24 -1 20 -5 34 -10 30 -5 -3 -7 5 -4 16
4 12 3 24 -2 27 -4 3 -10 -8 -13 -23z"/>
<path d="M674 1235 c-3 -8 -4 -20 -2 -27 3 -7 7 -1 10 15 6 29 1 36 -8 12z"/>
<path d="M507 1196 c-4 -9 -2 -18 3 -21 6 -4 10 -11 10 -16 0 -6 -4 -7 -10 -4
-5 3 -10 -1 -10 -9 0 -9 4 -16 8 -16 4 0 8 -9 8 -19 0 -15 -3 -17 -13 -9 -17
13 -17 -4 0 -21 7 -9 7 -11 1 -8 -7 4 -15 -1 -18 -10 -4 -10 -4 -14 0 -10 4 4
12 2 19 -3 8 -6 12 -6 13 3 1 6 4 31 6 54 2 23 7 47 11 53 3 5 0 19 -8 30 -12
17 -16 18 -20 6z"/>
<path d="M545 1059 c-4 -6 -5 -12 -2 -15 2 -3 7 2 10 11 7 17 1 20 -8 4z"/>
<path d="M695 1059 c-4 -6 -5 -12 -2 -15 2 -3 7 2 10 11 7 17 1 20 -8 4z"/>
<path d="M459 1012 c14 -12 35 -18 52 -16 19 2 29 -1 29 -10 0 -7 6 -19 14
-25 11 -9 15 -6 21 16 5 21 8 24 16 12 5 -7 9 -9 9 -3 0 5 17 11 38 13 20 1
55 6 77 11 39 7 38 8 -20 9 -33 1 -105 4 -160 7 l-100 6 24 -20z m111 -21 c0
-6 -4 -12 -8 -15 -5 -3 -9 1 -9 9 0 8 4 15 9 15 4 0 8 -4 8 -9z"/>
<path d="M463 979 c-1 -10 2 -19 8 -19 11 0 12 27 1 34 -4 2 -9 -4 -9 -15z"/>
<path d="M500 970 c0 -5 5 -10 11 -10 5 0 7 5 4 10 -3 6 -8 10 -11 10 -2 0 -4
-4 -4 -10z"/>
<path d="M597 973 c-12 -11 -8 -23 8 -23 8 0 15 7 15 15 0 16 -12 20 -23 8z"/>
<path d="M527 875 c-7 -73 -22 -109 -42 -101 -7 2 -16 2 -19 -1 -3 -4 -18 -8
-32 -9 -14 -2 -33 -11 -41 -21 -8 -10 -12 -13 -9 -7 8 16 -22 26 -42 14 -10
-5 -12 -10 -7 -10 6 0 4 -4 -4 -9 -9 -6 13 -11 65 -16 43 -3 117 -11 163 -16
46 -5 85 -8 87 -6 2 2 -3 12 -11 24 -9 13 -24 19 -42 18 l-28 -1 3 60 c2 34 6
80 9 104 5 39 4 42 -20 42 -22 0 -25 -4 -30 -65z m36 35 c-3 -12 -8 -19 -11
-16 -5 6 5 36 12 36 2 0 2 -9 -1 -20z m-11 -52 c-7 -7 -12 -8 -12 -2 0 14 12
26 19 19 2 -3 -1 -11 -7 -17z m-16 -86 c-19 -20 -20 -7 -4 39 l13 34 3 -29 c2
-17 -3 -35 -12 -44z m-89 -28 c-3 -3 -12 -4 -19 -1 -8 3 -5 6 6 6 11 1 17 -2
13 -5z"/>
<path d="M593 906 c0 -25 3 -33 13 -29 8 3 14 2 14 -1 0 -9 -24 -50 -33 -57
-5 -4 -2 -13 6 -20 13 -12 12 -15 -2 -26 -12 -9 -13 -14 -4 -24 9 -9 15 -8 29
5 15 16 15 18 -2 37 -18 20 -18 22 -1 33 15 12 17 37 8 109 -1 4 -7 7 -14 7
-8 0 -13 -13 -14 -34z m27 4 c0 -5 -4 -10 -10 -10 -5 0 -10 5 -10 10 0 6 5 10
10 10 6 0 10 -4 10 -10z m-10 -145 c-7 -9 -15 -13 -19 -10 -3 3 1 10 9 15 21
14 24 12 10 -5z"/>
<path d="M690 925 c0 -8 4 -15 10 -15 5 0 7 7 4 15 -4 8 -8 15 -10 15 -2 0 -4
-7 -4 -15z"/>
<path d="M716 927 c3 -10 9 -15 12 -12 3 3 0 11 -7 18 -10 9 -11 8 -5 -6z"/>
<path d="M503 895 c-3 -9 -3 -18 -1 -21 3 -3 8 4 11 16 6 23 -1 27 -10 5z"/>
<path d="M700 887 c0 -7 5 -30 12 -52 6 -22 11 -44 10 -48 -2 -5 3 -5 10 -1
10 6 11 4 1 -7 -20 -21 -15 -29 16 -29 29 0 29 0 19 40 -6 22 -14 40 -19 40
-5 0 -6 -8 -2 -17 5 -15 3 -16 -7 -6 -18 17 -25 87 -8 77 7 -4 9 -3 5 1 -12
14 -37 15 -37 2z m57 -119 c-3 -7 -5 -2 -5 12 0 14 2 19 5 13 2 -7 2 -19 0
-25z"/>
<path d="M736 857 c3 -10 9 -15 12 -12 3 3 0 11 -7 18 -10 9 -11 8 -5 -6z"/>
<path d="M483 815 c-3 -9 -3 -18 -1 -21 3 -3 8 4 11 16 6 23 -1 27 -10 5z"/>
<path d="M615 810 c3 -5 8 -10 11 -10 2 0 4 5 4 10 0 6 -5 10 -11 10 -5 0 -7
-4 -4 -10z"/>
<path d="M650 755 c0 -8 2 -15 4 -15 2 0 6 7 10 15 3 8 1 15 -4 15 -6 0 -10
-7 -10 -15z"/>
<path d="M320 702 c0 -13 70 -24 240 -37 70 -5 170 5 170 17 0 5 -4 7 -8 4
-22 -13 -107 -9 -354 20 -29 3 -48 1 -48 -4z"/>
<path d="M698 703 c7 -3 16 -2 19 1 4 3 -2 6 -13 5 -11 0 -14 -3 -6 -6z"/>
<path d="M763 693 c-13 -2 -23 -8 -23 -13 0 -8 69 6 79 16 5 5 -25 3 -56 -3z"/>
<path d="M366 661 c11 -5 38 -11 60 -12 21 -2 42 -8 46 -13 8 -12 40 -17 32
-5 -3 5 -1 9 5 9 5 0 12 -6 14 -12 4 -10 6 -10 6 0 1 6 9 12 19 13 27 2 -56
16 -133 23 -45 4 -63 3 -49 -3z"/>
<path d="M590 640 c0 -5 7 -10 16 -10 8 0 12 5 9 10 -3 6 -10 10 -16 10 -5 0
-9 -4 -9 -10z"/>
<path d="M255 570 c-3 -6 1 -7 9 -4 18 7 21 14 7 14 -6 0 -13 -4 -16 -10z"/>
<path d="M305 569 c-4 -6 -5 -12 -2 -15 2 -3 7 2 10 11 7 17 1 20 -8 4z"/>
<path d="M335 570 c-3 -5 1 -10 10 -10 9 0 13 5 10 10 -3 6 -8 10 -10 10 -2 0
-7 -4 -10 -10z"/>
<path d="M476 525 c-4 -24 -16 -55 -26 -68 l-20 -25 31 -6 c46 -9 119 -7 119
3 0 40 -44 112 -81 132 -14 7 -18 1 -23 -36z m31 4 c2 -16 -1 -19 -9 -11 -5 5
-7 15 -4 21 10 15 12 14 13 -10z m-12 -29 c3 -5 1 -10 -4 -10 -6 0 -11 5 -11
10 0 6 2 10 4 10 3 0 8 -4 11 -10z m-5 -24 c0 -3 -4 -8 -10 -11 -5 -3 -10 -1
-10 4 0 6 5 11 10 11 6 0 10 -2 10 -4z m70 -18 c0 -18 -2 -20 -9 -8 -6 8 -7
18 -5 22 9 14 14 9 14 -14z"/>
<path d="M818 554 c12 -8 27 -12 33 -8 14 8 -8 24 -36 24 -18 0 -18 -1 3 -16z"/>
<path d="M268 553 c-24 -6 -23 -18 2 -20 11 -1 20 4 20 13 0 8 -1 13 -2 13 -2
-1 -11 -3 -20 -6z"/>
<path d="M349 536 c-19 -13 -48 -41 -64 -63 -16 -21 -21 -32 -12 -24 10 8 17
9 17 3 0 -6 -10 -18 -22 -26 -12 -9 -19 -19 -15 -22 8 -8 43 29 62 67 8 14 30
40 50 58 42 37 34 41 -16 7z"/>
<path d="M557 545 c-4 -8 -3 -16 1 -19 4 -3 9 4 9 15 2 23 -3 25 -10 4z"/>
<path d="M895 515 c40 -56 42 -58 48 -47 4 5 -12 26 -35 48 l-41 39 28 -40z"/>
<path d="M872 500 c12 -16 23 -30 25 -30 6 0 -12 36 -23 48 -23 23 -25 12 -2
-18z"/>
<path d="M639 484 c-10 -13 -11 -18 -2 -21 7 -2 9 -11 6 -19 -3 -8 0 -14 6
-14 14 0 14 27 0 36 -8 4 -7 9 2 15 7 4 11 11 8 14 -4 3 -12 -2 -20 -11z"/>
<path d="M596 481 c-3 -5 0 -11 7 -14 8 -3 14 1 14 9 0 16 -13 19 -21 5z"/>
<path d="M906 445 c4 -9 14 -20 24 -25 15 -8 17 -6 13 10 -3 11 -9 17 -14 14
-5 -3 -9 0 -9 5 0 6 -4 11 -10 11 -5 0 -7 -7 -4 -15z"/>
<path d="M957 436 c3 -12 11 -23 18 -23 10 0 11 5 4 18 -14 28 -27 31 -22 5z"/>
<path d="M198 428 c8 -8 9 -15 1 -25 -8 -9 -8 -13 -1 -13 13 0 21 21 14 38 -2
6 -9 12 -15 12 -8 0 -7 -4 1 -12z"/>
<path d="M643 404 c1 -23 27 -29 27 -7 0 8 -4 12 -9 9 -5 -4 -11 0 -14 6 -3 7
-5 4 -4 -8z"/>
<path d="M950 386 c25 -7 49 -10 54 -7 15 7 -25 20 -64 19 -35 0 -35 0 10 -12z"/>
<path d="M111 376 c2 -2 24 -6 49 -9 30 -4 38 -3 25 3 -19 8 -83 14 -74 6z"/>
<path d="M610 355 c-8 -10 -9 -15 -2 -15 6 0 14 5 17 11 5 6 16 4 33 -7 21
-13 24 -14 15 -2 -7 8 -11 17 -8 19 2 3 -7 6 -19 7 -13 1 -29 -5 -36 -13z"/>
<path d="M588 313 c6 -2 18 -2 25 0 6 3 1 5 -13 5 -14 0 -19 -2 -12 -5z"/>
<path d="M630 308 c0 -4 14 -8 30 -8 17 0 30 2 30 4 0 2 -13 6 -30 8 -16 3
-30 1 -30 -4z"/>
</g>
</svg>
