<?xml version="1.0" standalone="no"?>
<!DOCTYPE svg PUBLIC "-//W3C//DTD SVG 20010904//EN"
 "http://www.w3.org/TR/2001/REC-SVG-20010904/DTD/svg10.dtd">
<svg version="1.0" xmlns="http://www.w3.org/2000/svg"
 width="67.000000pt" height="44.000000pt" viewBox="0 0 67.000000 44.000000"
 preserveAspectRatio="xMidYMid meet">

<g transform="translate(0.000000,44.000000) scale(0.100000,-0.100000)"
fill="#000000" stroke="none">
<path d="M358 353 c-43 -4 -48 -7 -48 -29 0 -16 -6 -24 -17 -25 -12 -1 -9 -4
7 -8 35 -11 50 -3 50 25 0 20 5 24 28 23 16 0 21 -3 12 -6 -35 -14 -40 -53 -7
-53 46 0 67 12 67 37 0 13 -4 22 -9 18 -5 -3 -12 -1 -16 4 -3 6 17 11 47 14
l53 3 -60 0 c-33 0 -81 -1 -107 -3z"/>
<path d="M237 338 c-15 -39 -16 -48 -6 -48 13 0 22 24 16 47 -4 17 -4 17 -10
1z"/>
<path d="M475 319 c-9 -26 -2 -33 24 -24 13 4 18 11 14 18 -4 7 2 5 12 -3 17
-14 18 -13 12 3 -4 10 -7 21 -7 23 0 2 -11 4 -24 4 -16 0 -27 -7 -31 -21z"/>
<path d="M511 257 c-6 -8 -17 -29 -25 -48 -13 -31 -13 -37 3 -57 l17 -23 -4
35 c-7 64 43 112 68 66 6 -11 15 -20 21 -20 5 0 3 14 -6 30 -17 32 -54 41 -74
17z"/>
<path d="M90 250 c0 -5 7 -10 16 -10 8 0 12 5 9 10 -3 6 -10 10 -16 10 -5 0
-9 -4 -9 -10z"/>
<path d="M190 249 c11 -8 7 -9 -18 -6 -18 2 -35 0 -38 -5 -3 -4 -21 -8 -40 -8
-31 0 -35 -3 -33 -22 2 -13 0 -29 -4 -35 -5 -8 -3 -13 3 -13 6 0 9 -4 6 -9
-11 -18 28 -51 52 -45 12 4 22 10 22 15 0 14 61 1 74 -16 10 -14 12 -11 8 18
-3 26 1 40 17 56 29 29 48 26 70 -10 16 -27 20 -28 34 -15 8 8 18 12 21 8 4
-3 4 2 0 12 -5 13 -9 14 -14 5 -6 -8 -11 -5 -19 10 -14 25 -49 28 -91 6 -28
-14 -28 -14 -25 13 3 28 -10 52 -29 52 -6 0 -4 -5 4 -11z m-43 -105 c-3 -3
-12 -4 -19 -1 -8 3 -5 6 6 6 11 1 17 -2 13 -5z"/>
<path d="M525 221 c-3 -6 4 -9 15 -8 11 1 20 5 20 9 0 11 -28 10 -35 -1z"/>
<path d="M511 185 c-1 -32 16 -52 31 -37 9 9 9 12 0 12 -7 0 -17 10 -22 23 -8
20 -9 20 -9 2z"/>
<path d="M250 175 c-7 -9 -10 -19 -6 -22 4 -4 11 -2 15 6 11 18 24 16 32 -6 7
-16 8 -16 8 3 1 12 -6 25 -15 28 -21 8 -20 8 -34 -9z"/>
<path d="M237 123 c12 -34 45 -38 57 -7 4 12 2 12 -14 4 -16 -9 -22 -8 -26 5
-3 8 -10 15 -15 15 -4 0 -5 -8 -2 -17z"/>
</g>
</svg>
